# xmcd CD database file generated by Grip 3.0.7
# 
# Track frame offsets:
#       150
#       14387
#       31405
#       51960
#       70385
#       85347
#       99247
#       112090
#       128760
#       142355
# 
# Disc length: 2157 seconds
# 
# Revision: 1
# Processed by: cddbd v1.5.1PL0 Copyright (c) Steve Scherf et al.
# Submitted via: Grip 3.0.7
# 
DISCID=8f086b0a
DTITLE=Patty Loveless - When Fallen Angels Fly
DYEAR=1994
DGENRE=Country
TTITLE0=A Handful of Dust
TTITLE1=Halfway Down
TTITLE2=When Fallen Angels Fly
TTITLE3=You Don't Even Know Who I Am
TTITLE4=Feelin' Good About Feelin' Bad
TTITLE5=Here I Am
TTITLE6=I Try to Think About Elvis
TTITLE7=Ships
TTITLE8=Old Weakness (Coming On Strong)
TTITLE9=Over My Shoulder
EXTD=
EXTT0=
EXTT1=
EXTT2=
EXTT3=
EXTT4=
EXTT5=
EXTT6=
EXTT7=
EXTT8=
EXTT9=
PLAYORDER=
